<?xml version="1.0" encoding="utf-8"?>
<!-- Generator: Adobe Illustrator 26.0.0, SVG Export Plug-In . SVG Version: 6.00 Build 0)  -->
<svg version="1.1" id="Layer_1" xmlns="http://www.w3.org/2000/svg" xmlns:xlink="http://www.w3.org/1999/xlink" x="0px" y="0px"
	 viewBox="0 0 198.5 198.5" style="enable-background:new 0 0 198.5 198.5;" xml:space="preserve">
<style type="text/css">
	.st0{fill:#0E0E0E;stroke:#F5F5F5;stroke-width:4;stroke-miterlimit:10;}
	.st1{fill:none;stroke:#F5F5F5;stroke-width:3;stroke-miterlimit:10;}
	.st2{fill:#0785F2;stroke:#F5F5F5;stroke-width:4;stroke-miterlimit:10;}
	.st3{fill:none;stroke:#F5F5F5;stroke-width:4;stroke-miterlimit:10;}
</style>
<g id="Calque_2">
	<g id="Rencontre">
		<path class="st0" d="M77.5,39.5c-28.8,0-52.2,19.4-52.2,43.3c0,11.2,5.1,21.4,13.5,29l-3.5,21.1c-0.4,0.9,0,2.1,0.9,2.5
			c0.5,0.2,1.1,0.2,1.6,0L58.2,123c6.2,2.1,12.8,3.1,19.3,3.1c28.8,0,52.2-19.4,52.2-43.3S106.3,39.5,77.5,39.5z"/>
		<line class="st1" x1="102.1" y1="86.3" x2="45" y2="86.3"/>
		<line class="st1" x1="102.1" y1="76.9" x2="73.6" y2="76.9"/>
		<line class="st1" x1="66.2" y1="76.9" x2="45" y2="76.9"/>
		<line class="st1" x1="66.2" y1="67.5" x2="45" y2="67.5"/>
		<path class="st2" d="M121,61.7c28.8,0,52.2,19.4,52.2,43.3c0,11.2-5.1,21.4-13.5,29.1l3.9,22.2c0.5,0.9,0.1,2-0.9,2.5
			c-0.5,0.2-1.1,0.2-1.6,0l-20.8-13.6c-6.2,2.1-12.8,3.1-19.3,3.1c-28.8,0-52.2-19.4-52.2-43.3S92.2,61.7,121,61.7z"/>
		<line class="st1" x1="92.5" y1="91.7" x2="149.5" y2="91.7"/>
		<line class="st1" x1="92.5" y1="101.1" x2="121" y2="101.1"/>
		<line class="st1" x1="128.4" y1="101.1" x2="149.5" y2="101.1"/>
		<line class="st1" x1="92.5" y1="110.5" x2="113.6" y2="110.5"/>
	</g>
</g>
<circle class="st3" cx="99.2" cy="99.2" r="95.7"/>
</svg>
