<svg id="Calque_3" data-name="Calque 3" xmlns="http://www.w3.org/2000/svg" viewBox="0 0 86.51 86.61"><defs><style>.cls-1{fill:#f5f5f5;}</style></defs><path class="cls-1" d="M58.1,70.6a44,44,0,0,0,6.5-1.4c7.5-2.3,11.5-7.4,12.7-15a28.37,28.37,0,0,0,.1-9.2A17.11,17.11,0,0,0,74,37.5a1.79,1.79,0,0,1-.4-1.7,16.28,16.28,0,0,0-.4-10,1.33,1.33,0,0,0-1.5-1,16.57,16.57,0,0,0-6.5,2.1c-1.4.8-2.7,2.1-4.3,2.4s-3.2-.6-4.8-.8a41.49,41.49,0,0,0-15.7.7,2.7,2.7,0,0,1-2.3-.4,22.42,22.42,0,0,0-8.6-3.9c-2.1-.4-2.3-.3-2.9,1.7a16.92,16.92,0,0,0-.1,9.2,1.23,1.23,0,0,1-.2,1.4c-3.9,4.6-4.4,10.1-3.7,15.8a20.47,20.47,0,0,0,1.1,4.9c2.3,6.9,7.5,10.4,14.4,11.9,1.2.3,2.5.4,3.9.7a10.34,10.34,0,0,0-2.5,5.4c-.1.5-.4.6-.8.8-4.7,2-9,.6-11.6-3.7-1.4-2.3-3.1-4.1-5.8-4.7-1-.2-2.4-.6-2.9.5s.8,1.6,1.6,2.1a11.92,11.92,0,0,1,4.5,5.9c1.8,5.2,6.7,7.5,12,6.9.9-.1,1.8-.3,2.8-.4,0,2.6.1,5.2,0,7.7-.1,1.7-1.5,2.4-3.4,1.8a36,36,0,0,1-7.7-3.6Q5.85,74.8,7,47.9A44,44,0,0,1,38.9,8.1c19.1-5.3,39.2,3.4,49,21.2C100.5,52,90.8,81.2,67.2,91.7c-1,.4-1.9.8-2.9,1.2-2.2.8-3.5-.2-3.5-2.5V79.7C61,76.4,60.5,73.2,58.1,70.6Z" transform="translate(-6.94 -6.56)"/></svg>