<svg id="Layer_1" data-name="Layer 1" xmlns="http://www.w3.org/2000/svg" viewBox="0 0 85.6 85.6"><defs><style>.cls-1{fill:#f5f5f5;}</style></defs><g id="Calque_1" data-name="Calque 1"><path class="cls-1" d="M50,7.2A42.8,42.8,0,1,0,92.8,50.1,43,43,0,0,0,50,7.2Zm-14.2,66v.6a.47.47,0,0,1-.5.5H25.7c-.8,0-.9-.1-.9-.9V42.3c0-.7.1-.8.8-.8h9.6c.3,0,.4.2.5.5V58h0C35.8,63,35.8,68.1,35.8,73.2Zm.7-41.1a5.62,5.62,0,0,1-5,4.9,7,7,0,0,1-4.3-.6,5.62,5.62,0,0,1-1.3-9,6.33,6.33,0,0,1,3.2-1.5,5.7,5.7,0,0,1,1.3-.1,6.39,6.39,0,0,1,4,1.3A5,5,0,0,1,36.5,32.1ZM75.2,73.8a.47.47,0,0,1-.5.5H65.2c-.8,0-.9-.1-.9-1V56.7a13.17,13.17,0,0,0-.4-3.4A5.18,5.18,0,0,0,60,49.4a5.64,5.64,0,0,0-4.7,1,6.41,6.41,0,0,0-2.5,4.4,6.6,6.6,0,0,0-.1,1.4V73.8c0,.4-.1.5-.5.6H42.7c-.9,0-1-.1-.9-.9.1-7.4.1-14.8.1-22.2,0-2.9,0-5.9-.1-8.8,0-.8.1-.9.9-.9h9.4c.5,0,.6.2.7.7v3.8a1.33,1.33,0,0,0,.5-.6,11.8,11.8,0,0,1,3.2-3.1,10.51,10.51,0,0,1,4.3-1.5,15.9,15.9,0,0,1,6.5.7,10.77,10.77,0,0,1,6.5,6.2A16.9,16.9,0,0,1,75,52.2a33.14,33.14,0,0,1,.2,4.4V73.8Z" transform="translate(-7.2 -7.2)"/></g></svg>